<svg width="982" height="906" viewBox="0 0 982 906" fill="none" xmlns="http://www.w3.org/2000/svg">
<g opacity="0.2" clip-path="url(#clip0_2553_458)">
<path d="M142.097 660C63.5443 660 0 715.042 0 783.084C0 850.958 63.5443 906.169 142.097 906.169C220.456 906.169 284.195 851.127 284.195 783.084C284 715.042 220.456 660 142.097 660ZM142.097 898.233C68.6122 898.233 9.16129 846.737 9.16129 783.084C9.16129 719.432 68.6122 667.935 142.097 667.935C215.583 667.935 275.034 719.432 275.034 783.084C275.034 846.568 215.388 898.233 142.097 898.233Z" fill="white"/>
<path d="M142.099 686.508C80.6986 686.508 30.7988 729.731 30.7988 782.916C30.7988 836.1 80.6986 879.323 142.099 879.323C203.499 879.323 253.399 836.269 253.399 783.084C253.399 729.731 203.499 686.508 142.099 686.508ZM142.099 864.634C90.0548 864.634 47.757 827.996 47.757 782.916C47.757 737.835 90.0548 701.197 142.099 701.197C194.143 701.197 236.441 737.835 236.441 782.916C236.441 827.996 194.143 864.634 142.099 864.634Z" fill="white"/>
<path d="M142.098 728.887C107.597 728.887 79.5283 753.2 79.5283 783.084C79.5283 812.969 107.402 837.282 142.098 837.282C176.599 837.282 204.668 812.969 204.668 783.084C204.473 753.2 176.599 728.887 142.098 728.887ZM142.098 812.125C123.58 812.125 108.572 799.124 108.572 783.084C108.572 767.045 123.58 754.044 142.098 754.044C160.616 754.044 175.624 767.045 175.624 783.084C175.624 799.124 160.616 812.125 142.098 812.125Z" fill="white"/>
</g>
<path opacity="0.3" d="M906 584.923C892.071 597.026 869.377 597.026 855.447 584.923C841.518 572.82 841.518 553.103 855.447 541L906 584.923Z" fill="white"/>
<g opacity="0.3">
<path d="M960.486 344.415C971.205 344.415 979.937 336.803 979.937 327.459C979.937 318.116 971.205 310.504 960.486 310.504L960.486 344.415Z" fill="white"/>
<path d="M930.141 344.415C940.861 344.415 949.592 336.803 949.592 327.459C949.592 318.116 940.861 310.504 930.141 310.504L930.141 344.415Z" fill="white"/>
<path d="M899.797 344.415C910.516 344.415 919.248 336.803 919.248 327.459C919.248 318.116 910.516 310.504 899.797 310.504L899.797 344.415Z" fill="white"/>
</g>
<g opacity="0.3">
<path d="M258.301 11.1217L258.301 0.815519L290 0.815516L290 28.2207L278.169 28.2207L278.169 11.1217L258.301 11.1217Z" fill="white"/>
<path d="M236.899 29.6276L236.899 19.3995L268.598 19.3995L268.598 46.7266L256.677 46.7266L256.677 29.6276L236.899 29.6276Z" fill="white"/>
<path d="M215.495 48.2077L215.495 37.9015L247.104 37.9015L247.104 65.3066L235.273 65.3066L235.273 48.2077L215.495 48.2077Z" fill="white"/>
<path d="M194.001 66.7135L194.001 56.4073L225.7 56.4073L225.7 83.8125L213.779 83.8125L213.779 66.7135L194.001 66.7135Z" fill="white"/>
</g>
<defs>
<clipPath id="clip0_2553_458">
<rect width="284" height="246" fill="white" transform="translate(0 660)"/>
</clipPath>
</defs>
</svg>
